<svg width="50" height="51" viewBox="0 0 50 51" fill="none" xmlns="http://www.w3.org/2000/svg">
<path d="M0.759547 4.12289C0.0101218 6.13721 -0.239687 10.9212 0.25993 14.9499C1.00936 21.4964 2.00859 22 11.0017 22H20.994V11.9284C20.994 2.10856 20.7442 1.85678 11.5013 1.1014C5.00629 0.597824 1.75878 1.35319 0.759547 4.12289Z" fill="#FBD765"/>
<path d="M1.743 29.7924C-1.2547 32.5621 -0.255471 35.5836 3.74146 35.5836C5.73993 35.5836 7.48859 37.3461 7.48859 39.3604C7.48859 41.3748 5.73993 43.1373 3.49166 43.1373C1.24338 43.1373 -0.00566251 44.3962 0.493954 46.1588C1.9928 50.691 7.48859 51.4464 7.48859 47.1659C7.48859 44.8998 9.23725 43.1373 11.2357 43.1373C13.2342 43.1373 14.9828 44.8998 14.9828 47.1659C14.9828 51.4464 20.4786 50.691 21.9775 46.1588C22.4771 44.3962 21.2281 43.1373 18.9798 43.1373C16.7315 43.1373 14.9828 41.3748 14.9828 39.3604C14.9828 37.3461 16.7315 35.5836 18.9798 35.5836C21.2281 35.5836 22.4771 34.3246 21.9775 32.5621C20.4786 28.0299 14.9828 27.2745 14.9828 31.5549C14.9828 33.8211 13.2342 35.5836 11.2357 35.5836C9.23725 35.5836 7.48859 33.8211 7.48859 31.8067C7.48859 27.7781 4.49089 26.7709 1.743 29.7924Z" fill="#FBD765"/>
<path d="M27.7934 31.9081C25.5451 38.2029 28.293 38.7065 33.2892 33.1671C37.5359 28.6348 37.5359 28.1313 33.539 28.1313C31.2907 28.1313 28.7927 29.8938 27.7934 31.9081Z" fill="#FBD765"/>
<path d="M36.5118 37.7582C31.2658 43.0458 28.0183 48.0816 29.2673 48.8369C30.7662 49.8441 36.0122 46.0672 41.0083 40.7796C46.2543 35.492 49.5018 30.4562 48.2528 29.7009C46.7539 28.6937 41.5079 32.4706 36.5118 37.7582Z" fill="#FBD765"/>
<path d="M43.217 45.9642C38.9703 50.4964 38.9703 51 42.9672 51C45.2155 51 47.7135 49.2375 48.7128 47.2231C50.9611 40.9284 48.2132 40.4248 43.217 45.9642Z" fill="#FBD765"/>
</svg>
