<svg width="50" height="51" viewBox="0 0 50 51" fill="none" xmlns="http://www.w3.org/2000/svg">
<path d="M26.8602 2.40277C24.6342 3.66109 23.5954 3.73974 21.592 3.11058C17.3627 1.69496 13.8011 2.95329 9.64593 7.27879C7.64254 9.40222 4.60036 12.3121 2.96798 13.8064C0.148399 16.323 0 16.7949 0 20.8845C0 24.7381 0.296798 25.5246 2.52278 27.9626C3.93257 29.4568 6.01015 30.9511 7.19734 31.187C8.38454 31.5016 9.79432 32.524 10.3879 33.4678C12.6881 37.1641 17.8079 38.1078 21.3694 35.5912C23.447 34.1756 23.5212 34.1756 26.1924 35.6698C29.6056 37.5573 34.5027 37.1641 37.5449 34.8047C38.6579 33.861 40.5129 33.1532 41.5517 33.1532C49.862 33.1532 53.2752 20.7272 46.0778 16.6376C44.7423 15.9298 44.1487 14.9074 44.1487 13.4918C44.1487 9.63816 41.1065 4.60484 37.4707 2.6387C33.4639 0.515274 30.496 0.43663 26.8602 2.40277ZM38.1385 4.60484C41.1065 6.96421 42.8131 10.9751 42.4421 14.8288C42.1453 17.9746 42.2195 18.1319 43.7035 17.7387C46.152 17.1095 48.2296 20.0194 48.2296 24.1876C48.2296 28.4344 46.3746 30.6365 42.2195 31.3443C40.6613 31.5803 38.3611 32.524 37.2481 33.3105C33.5381 36.1417 28.641 35.9844 24.7084 32.9959C23.6696 32.2094 23.1502 32.2881 21.8888 33.5464C20.7758 34.6474 19.2177 35.1193 16.9175 35.1193C14.0237 35.1193 13.2817 34.7261 11.5751 32.524C10.4621 31.187 9.12653 30.0074 8.60713 30.0074C6.67795 30.0074 3.33897 27.4907 2.22598 25.2886C-0.148399 20.4912 1.85499 14.4355 6.45535 12.7053C7.93934 12.1548 9.34913 10.7392 10.0169 9.32358C12.2429 4.76213 18.4757 2.79599 22.9276 5.23401C25.5246 6.64963 25.5988 6.64963 25.5988 5.31265C25.5988 2.40277 34.5769 1.85225 38.1385 4.60484Z" fill="#FBD765"/>
<path d="M26 8.21354C26 8.60677 26.371 9 26.742 9C27.1872 9 27.484 8.60677 27.484 8.21354C27.484 7.74167 27.1872 7.42709 26.742 7.42709C26.371 7.42709 26 7.74167 26 8.21354Z" fill="#FBD765"/>
<path d="M11 11.2135C11 11.6068 11.371 12 11.742 12C12.1872 12 12.484 11.6068 12.484 11.2135C12.484 10.7417 12.1872 10.4271 11.742 10.4271C11.371 10.4271 11 10.7417 11 11.2135Z" fill="#FBD765"/>
<path d="M28 11.2135C28 11.6068 28.371 12 28.742 12C29.1872 12 29.484 11.6068 29.484 11.2135C29.484 10.7417 29.1872 10.4271 28.742 10.4271C28.371 10.4271 28 10.7417 28 11.2135Z" fill="#FBD765"/>
<path d="M14 12.2135C14 12.6068 14.371 13 14.742 13C15.1872 13 15.484 12.6068 15.484 12.2135C15.484 11.7417 15.1872 11.4271 14.742 11.4271C14.371 11.4271 14 11.7417 14 12.2135Z" fill="#FBD765"/>
<path d="M16 13.2135C16 13.6068 16.371 14 16.742 14C17.1872 14 17.484 13.6068 17.484 13.2135C17.484 12.7417 17.1872 12.4271 16.742 12.4271C16.371 12.4271 16 12.7417 16 13.2135Z" fill="#FBD765"/>
<path d="M40 20.2135C40 20.6068 40.371 21 40.742 21C41.1872 21 41.484 20.6068 41.484 20.2135C41.484 19.7417 41.1872 19.4271 40.742 19.4271C40.371 19.4271 40 19.7417 40 20.2135Z" fill="#FBD765"/>
<path d="M38 23.2135C38 23.6068 38.371 24 38.742 24C39.1872 24 39.484 23.6068 39.484 23.2135C39.484 22.7417 39.1872 22.4271 38.742 22.4271C38.371 22.4271 38 22.7417 38 23.2135Z" fill="#FBD765"/>
<path d="M20.114 39.7646C17.6654 42.5958 19.5204 47 23.082 47C24.937 47 27.0146 44.6406 27.0146 42.5172C27.0146 38.8995 22.4142 37.0907 20.114 39.7646ZM25.0854 41.6521C25.679 42.7531 25.6048 43.3037 24.6402 44.3261C22.4142 46.6854 19.0752 43.6182 21.0786 41.0229C22.2658 39.6073 23.9724 39.8433 25.0854 41.6521Z" fill="#FBD765"/>
<path d="M13.6155 46.8526C11.6121 49.4479 14.9511 52.5151 17.1771 50.1557C18.1417 49.1334 18.2159 48.5828 17.6223 47.4818C16.5093 45.673 14.8027 45.437 13.6155 46.8526ZM16.5835 48.5042C16.5835 49.1334 16.0641 49.6839 15.4705 49.6839C14.8769 49.6839 14.3575 49.1334 14.3575 48.5042C14.3575 47.875 14.8769 47.3245 15.4705 47.3245C16.0641 47.3245 16.5835 47.875 16.5835 48.5042Z" fill="#FBD765"/>
</svg>
