<svg width="70" height="70" viewBox="0 0 70 70" fill="none" xmlns="http://www.w3.org/2000/svg">
<path d="M61.25 29.1666C61.25 49.5833 35 67.0833 35 67.0833C35 67.0833 8.75 49.5833 8.75 29.1666C8.75 22.2047 11.5156 15.5279 16.4384 10.6051C21.3613 5.68224 28.0381 2.91663 35 2.91663C41.9619 2.91663 48.6387 5.68224 53.5616 10.6051C58.4844 15.5279 61.25 22.2047 61.25 29.1666Z" stroke="#FBD765" stroke-width="5" stroke-linecap="round" stroke-linejoin="round"/>
<path d="M35 37.9166C39.8325 37.9166 43.75 33.9991 43.75 29.1666C43.75 24.3341 39.8325 20.4166 35 20.4166C30.1675 20.4166 26.25 24.3341 26.25 29.1666C26.25 33.9991 30.1675 37.9166 35 37.9166Z" stroke="#FBD765" stroke-width="4" stroke-linecap="round" stroke-linejoin="round"/>
</svg>
