<svg width="50" height="50" viewBox="0 0 50 50" fill="none" xmlns="http://www.w3.org/2000/svg">
<path d="M43.5 20.75C43.5 35.3333 24.75 47.8333 24.75 47.8333C24.75 47.8333 6 35.3333 6 20.75C6 15.7772 7.97544 11.0081 11.4917 7.49175C15.0081 3.97544 19.7772 2 24.75 2C29.7228 2 34.4919 3.97544 38.0083 7.49175C41.5246 11.0081 43.5 15.7772 43.5 20.75Z" stroke="#FBD765" stroke-width="3" stroke-linecap="round" stroke-linejoin="round"/>
<path d="M25.25 27.5C28.7018 27.5 31.5 24.7018 31.5 21.25C31.5 17.7982 28.7018 15 25.25 15C21.7982 15 19 17.7982 19 21.25C19 24.7018 21.7982 27.5 25.25 27.5Z" stroke="#FBD765" stroke-width="2.5" stroke-linecap="round" stroke-linejoin="round"/>
</svg>
