<svg width="20" height="51" viewBox="0 0 20 51" fill="none" xmlns="http://www.w3.org/2000/svg">
<path d="M6.61436 2.66667C3.16991 6 5.61436 12 10.3921 12C13.0588 12 15.9477 9.11111 15.9477 6.44445C15.9477 3.77778 13.0588 0.888891 10.3921 0.888891C9.28102 0.888891 7.50325 1.66667 6.61436 2.66667Z" fill="#FBD765"/>
<path d="M3.22222 17.5556C0.333333 20.4444 0 21.5556 0 27.5556C0 33.1111 0.333333 34.4444 2.22222 35.4444C4.11111 36.4444 4.44444 37.7778 4.44444 43.7778V45.4444C4.44444 48.5127 6.93175 51 10 51C13.0682 51 15.5556 48.5127 15.5556 45.4444V43.7778C15.5556 37.7778 15.8889 36.4444 17.7778 35.4444C19.5556 34.4444 20 33.1111 20 27.8889C20 21.1111 18.3333 17.5556 14.2222 15.3333C12.4444 14.3333 11.6667 14.4444 10.8889 15.5556C10.1111 16.7778 9.66667 16.7778 9.22222 15.6667C8.44444 13.5556 6.77778 14.1111 3.22222 17.5556ZM11.1111 23.2222C11.1111 26.2222 10.6667 28.7778 10 28.7778C9.44444 28.7778 8.88889 26.2222 8.88889 23.2222C8.88889 20.1111 9.44444 17.6667 10 17.6667C10.6667 17.6667 11.1111 20.1111 11.1111 23.2222Z" fill="#FBD765"/>
</svg>
