<svg width="50" height="50" viewBox="0 0 50 50" fill="none" xmlns="http://www.w3.org/2000/svg">
<path d="M30.3778 12.9659C29.996 13.3554 29.7822 13.8789 29.7822 14.4243C29.7822 14.9696 29.996 15.4932 30.3778 15.8826L33.7111 19.2159C34.1005 19.5976 34.6241 19.8115 35.1694 19.8115C35.7147 19.8115 36.2383 19.5976 36.6278 19.2159L44.4819 11.3618C45.5295 13.6767 45.8467 16.256 45.3912 18.7558C44.9357 21.2556 43.7292 23.5573 41.9325 25.354C40.1358 27.1507 37.8341 28.3572 35.3343 28.8127C32.8345 29.2682 30.2552 28.951 27.9403 27.9034L13.5444 42.2993C12.7156 43.1281 11.5915 43.5937 10.4194 43.5937C9.24732 43.5937 8.12322 43.1281 7.29442 42.2993C6.46562 41.4705 6 40.3464 6 39.1743C6 38.0022 6.46562 36.8781 7.29442 36.0493L21.6903 21.6534C20.6427 19.3384 20.3255 16.7592 20.781 14.2594C21.2364 11.7596 22.4429 9.45791 24.2397 7.66117C26.0364 5.86444 28.3381 4.65794 30.8379 4.20247C33.3377 3.74699 35.9169 4.06418 38.2319 5.11175L30.3986 12.9451L30.3778 12.9659Z" stroke="#FBD765" stroke-width="3" stroke-linecap="round" stroke-linejoin="round"/>
</svg>
